<svg width="230" height="176" viewBox="87.97 40.98 55.61 55.61" fill="none" xmlns="http://www.w3.org/2000/svg">
<path d="M117.11 54.7058C117.308 54.7058 117.497 54.6273 117.637 54.4875C117.777 54.3477 117.856 54.158 117.856 53.9603C117.856 53.7626 117.777 53.573 117.637 53.4332C117.497 53.2934 117.308 53.2148 117.11 53.2148C116.912 53.2148 116.723 53.2934 116.583 53.4332C116.443 53.573 116.365 53.7626 116.365 53.9603C116.365 54.158 116.443 54.3477 116.583 54.4875C116.723 54.6273 116.912 54.7058 117.11 54.7058ZM100.09 61.3223C100.09 61.4202 100.07 61.5172 100.033 61.6076C99.9954 61.6981 99.9405 61.7802 99.8713 61.8495C99.8021 61.9187 99.7199 61.9736 99.6294 62.0111C99.539 62.0485 99.442 62.0678 99.3441 62.0678C99.2462 62.0678 99.1493 62.0485 99.0588 62.0111C98.9684 61.9736 98.8862 61.9187 98.817 61.8495C98.7478 61.7802 98.6928 61.6981 98.6554 61.6076C98.6179 61.5172 98.5986 61.4202 98.5986 61.3223C98.5986 61.1246 98.6772 60.935 98.817 60.7952C98.9568 60.6554 99.1464 60.5768 99.3441 60.5768C99.5419 60.5768 99.7315 60.6554 99.8713 60.7952C100.011 60.935 100.09 61.1246 100.09 61.3223ZM110.494 71.7413C110.494 71.939 110.415 72.1287 110.275 72.2685C110.135 72.4083 109.946 72.4868 109.748 72.4868C109.55 72.4868 109.361 72.4083 109.221 72.2685C109.081 72.1287 109.003 71.939 109.003 71.7413C109.011 71.5496 109.093 71.3685 109.232 71.2359C109.371 71.1033 109.555 71.0292 109.747 71.0292C109.939 71.0292 110.124 71.1033 110.263 71.2359C110.401 71.3685 110.484 71.5496 110.492 71.7413M108.049 55.1378C108.049 55.3355 107.97 55.5252 107.83 55.665C107.69 55.8048 107.501 55.8833 107.303 55.8833C107.105 55.8833 106.916 55.8048 106.776 55.665C106.636 55.5252 106.558 55.3355 106.558 55.1378C106.558 54.9401 106.636 54.7505 106.776 54.6107C106.916 54.4709 107.105 54.3923 107.303 54.3923C107.501 54.3923 107.69 54.4709 107.83 54.6107C107.97 54.7505 108.049 54.9401 108.049 55.1378ZM112.207 68.2688C112.404 68.2688 112.594 68.1903 112.734 68.0505C112.874 67.9107 112.952 67.721 112.952 67.5233C112.952 67.3256 112.874 67.136 112.734 66.9962C112.594 66.8564 112.404 66.7778 112.207 66.7778C112.009 66.7778 111.819 66.8564 111.679 66.9962C111.54 67.136 111.461 67.3256 111.461 67.5233C111.461 67.721 111.54 67.9107 111.679 68.0505C111.819 68.1903 112.009 68.2688 112.207 68.2688ZM104.293 63.7823C104.293 63.8802 104.273 63.9772 104.236 64.0676C104.198 64.1581 104.144 64.2402 104.074 64.3095C104.005 64.3787 103.923 64.4336 103.832 64.4711C103.742 64.5085 103.645 64.5278 103.547 64.5278C103.449 64.5278 103.352 64.5085 103.262 64.4711C103.171 64.4336 103.089 64.3787 103.02 64.3095C102.951 64.2402 102.896 64.1581 102.858 64.0676C102.821 63.9772 102.802 63.8802 102.802 63.7823C102.802 63.5846 102.88 63.395 103.02 63.2552C103.16 63.1154 103.349 63.0368 103.547 63.0368C103.745 63.0368 103.934 63.1154 104.074 63.2552C104.214 63.395 104.293 63.5846 104.293 63.7823ZM115.948 59.6243C116.145 59.6243 116.335 59.5458 116.475 59.406C116.615 59.2662 116.693 59.0765 116.693 58.8788C116.693 58.6811 116.615 58.4915 116.475 58.3517C116.335 58.2119 116.145 58.1333 115.948 58.1333C115.756 58.1419 115.575 58.2241 115.442 58.3629C115.31 58.5016 115.236 58.6861 115.236 58.8781C115.236 59.07 115.31 59.2545 115.442 59.3933C115.575 59.532 115.756 59.6142 115.948 59.6228M109.748 51.6653C109.946 51.6653 110.135 51.5868 110.275 51.447C110.415 51.3072 110.494 51.1175 110.494 50.9198C110.494 50.7221 110.415 50.5325 110.275 50.3927C110.135 50.2529 109.946 50.1743 109.748 50.1743C109.55 50.1743 109.361 50.2529 109.221 50.3927C109.081 50.5325 109.003 50.7221 109.003 50.9198C109.003 51.1175 109.081 51.3072 109.221 51.447C109.361 51.5868 109.55 51.6653 109.748 51.6653ZM102.385 54.7058C102.582 54.7058 102.772 54.6273 102.912 54.4875C103.052 54.3477 103.13 54.158 103.13 53.9603C103.13 53.7626 103.052 53.573 102.912 53.4332C102.772 53.2934 102.582 53.2148 102.385 53.2148C102.187 53.2148 101.997 53.2934 101.857 53.4332C101.718 53.573 101.639 53.7626 101.639 53.9603C101.639 54.158 101.718 54.3477 101.857 54.4875C101.997 54.6273 102.187 54.7058 102.385 54.7058ZM117.856 68.6858C117.856 68.8835 117.777 69.0732 117.637 69.213C117.497 69.3528 117.308 69.4313 117.11 69.4313C116.912 69.4313 116.723 69.3528 116.583 69.213C116.443 69.0732 116.365 68.8835 116.365 68.6858C116.365 68.4881 116.443 68.2985 116.583 68.1587C116.723 68.0189 116.912 67.9403 117.11 67.9403C117.308 67.9403 117.497 68.0189 117.637 68.1587C117.777 68.2985 117.856 68.4881 117.856 68.6858ZM120.166 62.0678C120.363 62.0678 120.553 61.9893 120.693 61.8495C120.833 61.7097 120.911 61.52 120.911 61.3223C120.911 61.1246 120.833 60.935 120.693 60.7952C120.553 60.6554 120.363 60.5768 120.166 60.5768C119.968 60.5768 119.778 60.6554 119.638 60.7952C119.499 60.935 119.42 61.1246 119.42 61.3223C119.42 61.52 119.499 61.7097 119.638 61.8495C119.778 61.9893 119.968 62.0678 120.166 62.0678ZM103.13 68.6858C103.13 68.7837 103.111 68.8807 103.073 68.9711C103.036 69.0616 102.981 69.1437 102.912 69.213C102.843 69.2822 102.76 69.3371 102.67 69.3746C102.579 69.412 102.483 69.4313 102.385 69.4313C102.287 69.4313 102.19 69.412 102.099 69.3746C102.009 69.3371 101.927 69.2822 101.857 69.213C101.788 69.1437 101.733 69.0616 101.696 68.9711C101.658 68.8807 101.639 68.7837 101.639 68.6858C101.639 68.4881 101.718 68.2985 101.857 68.1587C101.997 68.0189 102.187 67.9403 102.385 67.9403C102.582 67.9403 102.772 68.0189 102.912 68.1587C103.052 68.2985 103.13 68.4881 103.13 68.6858ZM103.637 59.4293C103.738 59.4338 103.838 59.4179 103.933 59.3825C104.027 59.3471 104.113 59.293 104.186 59.2234C104.259 59.1538 104.316 59.0702 104.356 58.9776C104.396 58.885 104.416 58.7853 104.416 58.6846C104.416 58.5839 104.396 58.4842 104.356 58.3916C104.316 58.299 104.259 58.2153 104.186 58.1457C104.113 58.0761 104.027 58.022 103.933 57.9866C103.838 57.9512 103.738 57.9353 103.637 57.9398C103.445 57.9484 103.264 58.0306 103.132 58.1694C102.999 58.3081 102.925 58.4926 102.925 58.6846C102.925 58.8765 102.999 59.061 103.132 59.1998C103.264 59.3385 103.445 59.4207 103.637 59.4293ZM116.62 63.9758C116.62 64.1735 116.541 64.3632 116.401 64.503C116.261 64.6428 116.072 64.7213 115.874 64.7213C115.676 64.7213 115.487 64.6428 115.347 64.503C115.207 64.3632 115.129 64.1735 115.129 63.9758C115.137 63.7841 115.219 63.603 115.358 63.4704C115.497 63.3378 115.681 63.2637 115.873 63.2637C116.065 63.2637 116.25 63.3378 116.389 63.4704C116.527 63.603 116.611 63.7841 116.62 63.9758ZM107.095 68.1938C107.292 68.1938 107.482 68.1153 107.622 67.9755C107.762 67.8357 107.84 67.646 107.84 67.4483C107.84 67.2506 107.762 67.061 107.622 66.9212C107.482 66.7814 107.292 66.7028 107.095 66.7028C106.897 66.7028 106.707 66.7814 106.567 66.9212C106.428 67.061 106.349 67.2506 106.349 67.4483C106.349 67.646 106.428 67.8357 106.567 67.9755C106.707 68.1153 106.897 68.1938 107.095 68.1938ZM113.146 55.2113C113.15 55.3119 113.134 55.4124 113.099 55.5067C113.063 55.601 113.009 55.6871 112.94 55.7599C112.87 55.8327 112.786 55.8907 112.694 55.9303C112.601 55.9698 112.502 55.9902 112.401 55.9902C112.3 55.9902 112.2 55.9698 112.108 55.9303C112.015 55.8907 111.932 55.8327 111.862 55.7599C111.792 55.6871 111.738 55.601 111.703 55.5067C111.668 55.4124 111.652 55.3119 111.656 55.2113C111.665 55.0196 111.747 54.8385 111.886 54.7059C112.024 54.5733 112.209 54.4992 112.401 54.4992C112.593 54.4992 112.777 54.5733 112.916 54.7059C113.055 54.8385 113.137 55.0196 113.146 55.2113ZM109.136 64.9448H110.642C111.116 64.9456 111.585 64.8528 112.023 64.6718C112.461 64.4908 112.859 64.225 113.194 63.8899C113.529 63.5547 113.795 63.1567 113.976 62.7187C114.157 62.2806 114.249 61.8112 114.248 61.3373C114.247 60.3812 113.867 59.4644 113.191 58.7884C112.515 58.1123 111.598 57.7321 110.642 57.7313H109.135C108.179 57.7325 107.262 58.1128 106.586 58.7888C105.91 59.4648 105.53 60.3813 105.529 61.3373C105.529 62.2936 105.91 63.2105 106.586 63.8868C107.262 64.5631 108.18 64.9436 109.136 64.9448Z" fill="#FFA518"/>
<path d="M103.015 47.0573C110.786 43.3043 120.163 46.5698 123.929 54.3173L124.009 54.4853C125.134 54.6503 126.202 55.1198 127.093 55.8548L127.097 55.8578L129.08 57.4718C129.179 57.5513 129.283 57.6233 129.422 57.7223L131.563 59.0948C132.894 59.9523 133.855 61.2774 134.257 62.8088V62.8133L134.917 65.3108C134.943 65.4158 134.98 65.5348 135.028 65.6678L135.913 67.9313H135.988V68.1263C136.525 69.5729 136.52 71.1649 135.974 72.6083V75.8483H135.941C135.413 84.0143 128.611 90.5003 120.301 90.5003H120.136C111.907 90.5003 105.13 84.1268 104.509 76.0403C100.774 74.7413 97.6689 72.0761 95.8193 68.5808L95.8178 68.5763C95.7236 68.409 95.6375 68.2373 95.5598 68.0618C91.8008 60.2873 95.0693 50.9243 102.815 47.1428L102.865 47.1173L103.015 47.0573ZM123.349 69.1073C123.765 69.4448 124.101 69.8712 124.332 70.3552C124.563 70.8392 124.682 71.3686 124.682 71.9048C124.683 72.3788 124.591 72.8483 124.41 73.2865C124.229 73.7246 123.963 74.1227 123.628 74.4579C123.293 74.793 122.895 75.0587 122.456 75.2397C122.018 75.4206 121.549 75.5133 121.075 75.5123H119.57C118.828 75.5125 118.103 75.283 117.496 74.8553C117.23 75.0032 116.96 75.1438 116.686 75.2768L116.528 75.3563C114.029 76.5712 111.25 77.0963 108.479 76.8773L108.548 77.1368C108.749 77.9198 109.258 78.6218 109.964 79.0793L109.966 79.0808L112.148 80.4803L112.184 80.5058C112.327 80.6063 112.51 80.7338 112.697 80.8838L112.706 80.8913L114.712 82.5218C115.358 83.0558 116.177 83.3213 117.004 83.2703H117.01L119.57 83.1203C119.823 83.1042 120.077 83.1042 120.329 83.1203L122.884 83.2703C123.721 83.3079 124.544 83.0392 125.198 82.5143L127.202 80.8838C127.388 80.7338 127.571 80.6063 127.712 80.5088L127.751 80.4803L129.934 79.0808H129.935C130.631 78.6293 131.137 77.9303 131.356 77.1218V77.1188L132.008 74.6453C132.061 74.4398 132.128 74.2358 132.176 74.0993L132.202 74.0243L132.214 73.9868L133.165 71.5583C133.463 70.7783 133.463 69.9157 133.165 69.1358L132.22 66.7253L132.215 66.7103C132.136 66.4931 132.067 66.2723 132.008 66.0488L131.351 63.5588C131.138 62.757 130.633 62.0637 129.935 61.6148L129.934 61.6133L127.751 60.2138L127.714 60.1883C127.573 60.0878 127.39 59.9603 127.204 59.8118L127.193 59.8043L125.222 58.1993C125.937 61.9419 125.271 65.8167 123.347 69.1058M121.229 55.6268C118.18 49.3553 110.567 46.7153 104.279 49.7783L104.23 49.8023L104.083 49.8623C97.8383 52.9433 95.2223 60.5198 98.2778 66.7913L98.3018 66.8408L98.3228 66.8918C98.3408 66.9383 98.3678 66.9923 98.4503 67.1378L98.4578 67.1528L98.4653 67.1663C101.635 73.1723 109.057 75.6398 115.211 72.6608L115.367 72.5828C121.655 69.5318 124.283 61.9208 121.232 55.6283" fill="#FFA518"/>
</svg>